<?xml version="1.0" encoding="UTF-8"?>
<svg width="184.15mm" height="136.31mm" enable-background="new" version="1.1" viewBox="0 0 184.15 136.31" xmlns="http://www.w3.org/2000/svg" xmlns:cc="http://creativecommons.org/ns#" xmlns:dc="http://purl.org/dc/elements/1.1/" xmlns:rdf="http://www.w3.org/1999/02/22-rdf-syntax-ns#">
 <defs>
  <marker id="DotS" overflow="visible" orient="auto">
   <path transform="matrix(.2 0 0 .2 1.48 .2)" d="m-2.5-1c0 2.76-2.24 5-5 5s-5-2.24-5-5 2.24-5 5-5 5 2.24 5 5z" fill-rule="evenodd" stroke="#000" stroke-width="1pt"/>
  </marker>
  <marker id="DotS-1" overflow="visible" orient="auto">
   <path transform="matrix(.2 0 0 .2 1.48 .2)" d="m-2.5-1c0 2.76-2.24 5-5 5s-5-2.24-5-5 2.24-5 5-5 5 2.24 5 5z" fill-rule="evenodd" stroke="#000" stroke-width="1pt"/>
  </marker>
  <marker id="DotS-1-6" overflow="visible" orient="auto">
   <path transform="matrix(.2 0 0 .2 1.48 .2)" d="m-2.5-1c0 2.76-2.24 5-5 5s-5-2.24-5-5 2.24-5 5-5 5 2.24 5 5z" fill-rule="evenodd" stroke="#000" stroke-width="1pt"/>
  </marker>
  <marker id="DotS-7" overflow="visible" orient="auto">
   <path transform="matrix(.2 0 0 .2 1.48 .2)" d="m-2.5-1c0 2.76-2.24 5-5 5s-5-2.24-5-5 2.24-5 5-5 5 2.24 5 5z" fill-rule="evenodd" stroke="#000" stroke-width="1pt"/>
  </marker>
  <marker id="DotS-1-6-4" overflow="visible" orient="auto">
   <path transform="matrix(.2 0 0 .2 1.48 .2)" d="m-2.5-1c0 2.76-2.24 5-5 5s-5-2.24-5-5 2.24-5 5-5 5 2.24 5 5z" fill-rule="evenodd" stroke="#000" stroke-width="1pt"/>
  </marker>
  <marker id="DotS-4" overflow="visible" orient="auto">
   <path transform="matrix(.2 0 0 .2 1.48 .2)" d="m-2.5-1c0 2.76-2.24 5-5 5s-5-2.24-5-5 2.24-5 5-5 5 2.24 5 5z" fill-rule="evenodd" stroke="#000" stroke-width="1pt"/>
  </marker>
 </defs>
 <metadata>
  <rdf:RDF>
   <cc:Work rdf:about="">
    <dc:format>image/svg+xml</dc:format>
    <dc:type rdf:resource="http://purl.org/dc/dcmitype/StillImage"/>
    <dc:title/>
   </cc:Work>
  </rdf:RDF>
 </metadata>
 <g transform="translate(-3.4895 -41.762)">
  <g>
   <rect x="3.4895" y="41.762" width="184.15" height="136.31" fill="#fff"/>
   <path d="m77.141 130.95-0.53442 0.24639-28.347 6.7151h-1.2361l-1.4199-0.30067-1.2862-0.61807-0.93544-0.95214-18.354-17.706-0.51972-0.74414-0.37207-1.2284-0.21852-0.60239-0.8032-12.284-1.3702-2.197 0.14174-0.16536 16.3-2.1025-0.56696-1.2757-0.42522-1.7009-0.25986-1.7009-0.18899-1.8426 0.04725-1.9608 0.4016-3.1183 0.56696-2.2442 0.8032-2.4332-0.16536-0.21261-17.505-5.7405 0.01181-2.5159 0.28348-3.4608 2.7285-3.5671 1.3229-1.4174 1.0158-1.0394 2.197-1.9135 0.66146-0.51972 21.781-10.536 0.56696 0.16536 1.7718 0.02363 2.5513-0.14174 1.9608-0.11812 1.8604-0.22442 3.6439-1.382 2.1497-0.63783 2.6695-0.61421 2.6458-0.33073 3.6853-0.11812 2.2679 0.09449 3.2364 0.35435 1.9371 0.35435 2.1497 0.59059 1.63 0.56696 1.3938 0.44885 1.0867 0.54334 1.3229 0.63784 1.7245 0.99219 2.1025 1.3938 2.5041 0.28348 14.174 2.0316 0.99218 0.66146 0.96857 0.82682 0.99219 1.1339 0.66145 1.1339 0.35436 0.87407 0.23623 0.87407-2.3411 48.872-16.251 15.857-10.752 2.6686z" fill="#ececec"/>
   <path d="m66.902 99.224 2.3624-0.92132 1.1576-0.63783 0.37798-0.54334-0.07087-0.3071-0.18899-0.18899-0.37798-2.2915-0.03544-1.8072 0.17718-1.7836 0.28348-1.2757 0.56696-1.9844 0.8032-1.5355 0.88588-1.2993 0.99219-1.0631 1.3702-0.9095 1.252-0.64965 1.1694-0.41341 1.6064-0.37798 1.63 0.22442 1.6891 0.38979 1.0749 0.48428 1.1339 0.63783 0.88588 0.7087 0.73233 0.79139 0.66146 0.98038 0.67327 1.2284 0.27167 0.96856 0.44885 1.8544 0.10631 1.1694 0.03544 1.7718-0.03544 1.0985-0.31892 1.9371 5.6224 0.53153 5.5279 0.5079 0.07087 0.15355-5.6933-0.33073-0.09449 0.43703-0.34254 0.95675-0.48428 0.62602-0.2008 0.18899-0.9095-0.0118-0.02363 0.56696-0.12993 1.1576-0.16536 0.2953-0.87407 1.0158-0.79139 0.69689-0.25986 0.24805 0.0118 0.17717-0.49609-0.0236-1.2402 0.0827s-0.73233 0.21261-0.79139 0.22442c-0.05906 0.0118-0.94494 0.31892-0.94494 0.31892l-0.03544 0.86226-0.17718 0.0945-2.3624 0.16536-1.1812-0.12992-1.2993-0.34254-1.1221-0.55516-1.2166-0.9095-0.98038-1.1339-0.02363-1.571-1.1576 0.15355-0.46066-0.74414-0.62602-1.5355-1.0749 0.18899-3.7207 0.76776-3.7207 0.75596z" fill="#fff"/>
   <path d="m72.397 132.06 4.577-1.0691 0.03341-0.13363 3.2072-0.3675 2.5057-0.56795 1.637-0.56794 0.63476 0.0668 17.264 9.1898 0.15388-3.1164-0.94467-0.55651-0.0103-5.478-6.0396-2.7449-1.5941-0.60839-3.7325-1.63-5.0635-2.2049-5.8131-2.5057-4.6939-2.0379-1.3363-2.9734-1.637-3.7418 0.22551-0.12529 2.823-0.61806 6.5732-1.1442 0.16704-3.2908 4.4434-0.66818v-1.8375l1.6537-0.58465 2.1799-0.0668 2.4054 0.0752 2.9901 0.31738 2.6727 0.34244 0.48443 0.14199 0.97333 0.77131 0.16536 2.5041 0.11812 1.5828 1.9608 0.37798 2.3199 0.52685 2.5892 0.60135 5.6711 1.2361 3.7752 0.7684 5.8799 1.3196 8.3856 1.8208 20.271 4.5018 33.442 7.2914 0.10858 0.30903-0.0553 9.6184-17.409 8.7564 0.0167 3.0736-0.51784 0.26727 0.30069 0.15034 7.7231 2.5526 0.73233 0.56697 0.33073 0.92131-0.30711 1.2402 7e-3 6.5957-29.891 15.162-1.6536 0.30711-3.638-0.11812-43.148-26.258 0.33073-3.3664-24.19-14.446z" fill="#ececec"/>
   <path d="m81.289 109.93 0.30711-4.0869 4.3467-0.68508 0.07087-1.7954 1.6064-0.59059 1.8899-0.0945 2.3151 0.0709 2.008 0.18899 4.394 0.56696 1.0394 0.85045 0.25986 3.1892 0.09449 2.5513-1.2048 0.35436-8.3391 1.819z" fill="#fdfdfd"/>
   <path d="m21.281 70.589 1.7707-2.3386 1.2695-1.5702 1.7373-1.8041 1.3698-1.3029 1.5702-1.3029 2.8063-1.2695 3.5747-1.7373 7.3165-3.5747 8.1517-3.9422 0.3675 0.13364 1.2695 0.13364 1.3363-0.06682 2.0713-0.16704 1.7707-0.06682 1.7038-0.26727-0.30068 0.23386-3.2406 1.6704-1.8375 1.3029-2.6393 1.9043-1.3029 1.1693-3.0736 2.8063-1.7038 1.9377-1.5702 2.0713-1.1359 1.9377-1.6036 2.7061-1.3029 2.6059-0.90203 1.8709 0.13364-1.8709 0.20045-3.107-0.06682-1.3698-0.4009-1.3363-0.70158-0.90204-0.20045-0.10022-2.1047 0.73499-4.5102 1.5702-3.3409 1.1359-4.1427 1.47-2.4722 0.7684" fill="#383838"/>
   <path d="m45.593 117.01 0.28348 7.2288 0.3071 8.6226 0.49609 1.0867 0.99219 1.1103 1.2993 0.70871 1.3938 0.0945 1.5592-0.23623 2.1734-0.4961 2.386-0.54334 2.5277-0.56696 3.449-0.75595 4.016-0.85045 3.6144-0.82682 0.56696-0.30711 0.61421-0.42522-1.7718-0.0945-2.2679-0.28348-2.4096-0.42522-3.0238-0.82682-2.3387-0.94494-1.5119-0.70871-2.2679-1.252-2.4568-1.6536-1.9135-1.5828-1.7718-1.7718-1.3229-1.3702-0.99219-1.1103z" fill="#383838"/>
   <path d="m99.609 108.8 0.04725-0.47247 84.184 18.519-0.12528 0.12528-3.6081 1.3781z" fill="#8e8e8e"/>
   <path d="m91.607 125.01 1.4032 0.68488-1.186 0.66817-3.9255 1.7707-3.6248 1.353-4.8944 1.1359-3.9422 0.23386-3.8754-0.40091-4.4099-0.80181-1.5702-0.31738-4.1928-1.8041-3.7585-2.2885-2.9734-2.2217-3.2072-3.1237-2.088-2.7395-1.6203-2.5558-1.6752-3.5459-1.5119-4.2522-1.0631-4.4412-0.75595-6.2366-0.23624-3.3309 0.02363-2.764 0.28348-2.6458 0.85044-4.5593 1.0867-4.0396 0.99219-2.764 1.6536-3.7325 1.63-2.8821 2.197-3.2837 1.6064-1.8899 2.0552-2.2915 2.6458-2.3387 2.575-1.9371 3.2837-2.1261 2.6458-1.3229 3.7089-1.4174 3.0474-0.77957 2.9293-0.47247 2.4332-0.14174 2.5513 0.14174 3.0002 0.33073 3.4018 0.82682 2.5277 0.87407 1.6536 0.75596 1.6773 0.85044 1.7954 1.0394 2.7935 1.9253 1.4593 1.1928 1.1025 1.0691 1.5869 1.8208 1.2528 1.5034-1.6036-1.3698-2.8898-2.4555-3.3409-2.3219-3.6248-1.8375-3.2908-1.1359-2.8564-0.60136-3.107-0.16704-2.2718 0.05011-3.1237 0.48443-1.921 0.41761-2.1549 0.66817-3.6415 1.5368-2.088 1.0691-2.2718 1.4032-1.637 1.1359-1.7038 1.3363-1.3865 1.2027-2.4388 2.4722-1.6704 2.0713-1.3363 1.8709-2.1549 3.675-1.8709 4.3765-0.88533 2.4889-0.95215 3.9422-0.51783 2.8899-0.4009 3.1237-0.18375 5.2953 0.15034 3.2072 0.28397 2.9567 0.45102 1.7205 0.80181 2.4555 1.9043 4.6772 0.93544 1.9043 1.637 2.823 2.3219 3.3409 1.9043 2.1716 1.6871 1.5869 1.7874 1.5368 1.637 1.1526 1.7373 0.96885 2.7896 1.2862 2.2885 0.66818 2.823 0.58465 3.0235 0.26727 2.3052-0.10023 2.6393-0.21715 2.0546-0.3842 1.8876-0.46772 3.0068-0.88533 1.7373-0.60136 1.47-0.56795z" fill="#8e8e8e"/>
   <path d="m67.218 82.616-1.9377 0.06682-2.6727 10.657 2.7729 11.058 2.7729 2.5391 0.30068-0.0334-1.1359-2.0379-1.1359-2.9066-0.43431-1.8375-0.63477-3.842-0.10022-3.4745 0.30068-3.1404 0.50113-2.94 0.70158-2.4722z" fill="#fff"/>
   <path d="m71.829 110.91 2.3052-0.50113 83.321 27.094-3.4411 1.8041z" fill="#8e8e8e"/>
  </g>
  <g fill="none" stroke="#000">
   <g>
    <path d="m71.694 110.97 82.363 28.327" stroke-width=".20775px"/>
    <g stroke-width=".19233px">
     <path d="m71.694 110.97 3.1009 6.7808 79.072 34.193"/>
     <path d="m71.694 110.97 2.4209-0.55322"/>
     <path d="m74.115 110.42 83.346 27.053"/>
     <path d="m154.06 139.3c2.7238-2.1181 29.923-12.415 29.923-12.415"/>
     <path d="m99.634 108.38 84.346 18.508"/>
     <path d="m154.06 139.3-0.19038 12.647 30.113-15.154v-9.9083"/>
     <path d="m101.74 129.71-0.0687 5.2203 42.655 19.988v-7.1436"/>
     <path d="m102.63 135.53-0.29143 5.9741 38.516 18.991 0.24285-7.0912"/>
     <path d="m144.33 154.92 7.8463-3.7344"/>
     <path d="m102.29 140.24-5.0998 1.5542c-0.2412 0.37029-0.19892 0.78108 0 1.2142l44.83 25.062c1.0638 0.29164 2.1831 0.38952 3.497-0.19428l29.336-13.6c0.38868-1.0489 0.52805-2.0444-0.82569-2.7199l-8.1355-2.6956"/>
     <path d="m97.186 143.01-0.63141 6.9941 43.13 26.228c1.8593 0.23428 3.609 0.17279 5.2456-0.19428l29.919-15.154v-6.6055"/>
     <path d="m102.27 140.24v0.37778l-3.4139 0.91474c-0.37378 0.23871-0.2803 0.41902-0.15968 0.59593l43.221 23.566c0.85066 0.23406 1.4696 0.69985 3.3999-0.14571l27.588-11.9c0.64636-0.83234 0.0332-1.0975-0.42506-1.4388"/>
     <path d="m103.16 142.09s-0.19428 1.3114 0.0486 1.5542c0.24285 0.24284 35.748 18.214 35.748 18.214l0.0486-2.2342"/>
     <path d="m140.95 160.49 25.633-11.894v-3.0223"/>
     <path d="m180.18 128.34-80.528-19.542"/>
     <path d="m138.97 161.86 25.346-11.746v-0.34344"/>
     <path d="m164.92 149.42 7.6012 2.817"/>
     <path d="m74.366 110.37 6.9032-1.202"/>
     <path d="m81.304 109.93 0.2404-4.0183 8.4143 2.0263-0.03431 4.2587z"/>
     <path d="m81.477 105.88 4.463-0.69105"/>
     <path d="m85.94 106.43 0.06869-2.9276c0.72542 0.75502 2.0159 0.66239 3.091 0.89296 0.84163 0.39182 1.3475 0.81416 1.4768 1.2707l-0.03431 4.4991 0.99598 1.6142-1.5798 0.48082"/>
     <path d="m85.975 106.39c-0.13179 0.17128 0.36842 0.39116 2.7475 0.75558 0.6625 0.11927 0.90241 0.38307 1.3797 0.71117l-0.17761 0.0444"/>
     <path d="m90.677 105.71 0.92283-0.19428 0.07286 3.4242c0.25428 0.71446 0.53539 1.4021 1.1081 1.7981 0.63663 0.56969 1.4658 0.49743 2.2918 0.43611 2.9864-0.81102 2.1976-1.5419 3.0599-3.157 0.16535-0.90729 0.30316-1.9386 0.33999-3.4242l0.84998-0.1457c0.36598 3.3206-0.09686 5.7502-1.1657 6.0712l-6.6055 1.3114"/>
     <path d="m91.624 105.44c-0.30719-0.4252-0.60192-0.85663-1.2871-1.0928-1.5588-0.38277-2.5848-0.49911-3.7885-0.70427-0.28617-0.46236 0.39619-0.60189 1.2628-0.67998 1.619-0.037 2.7241-6e-4 3.9099 0.0243 1.7601 0.17344 3.4032 0.22996 5.4641 0.70426 0.44192 0.15743 0.88408 0.31344 1.2628 0.84998"/>
     <path d="m85.93 103.35c1.5634-0.50268 1.3017-0.46794 1.6878-0.55855 1.8275-0.20103 3.1464-0.063 4.6141-0.0243 1.2871 0.13457 2.5742 0.24284 3.8613 0.43713 0.74807 0.1019 1.5217 0.17825 2.2099 0.33999l1.0443 0.82569"/>
     <path d="m99.541 106.49 0.10304 3.6061-1.4081 0.38637"/>
     <path d="m90.474 107.8-0.51517 0.13738"/>
     <path d="m72.269 110.66c-10.462-5.4321-12.371-39.254 13.6-40.119 14.26 1.9543 19.951 19.919 12.434 33.125"/>
     <path d="m66.732 99.393 8.6455-1.7485c0.35618 1.1166 0.71236 1.664 1.0685 2.2828l1.2142-0.14571v1.6028c1.3296 1.5059 2.9098 3.5683 8.2569 2.8656"/>
     <path d="m89.415 102.55c0.98347-0.69215 1.5807-1.513 2.1856-2.3314l0.09714-1.6514 1.02-0.04856c0.74174-0.87509 0.9918-1.6642 1.02-2.1856l6.3141 0.33999"/>
     <path d="m70.861 96.819 4.517 0.77712"/>
     <path d="m70.618 96.77c-1.4233-5.1211-0.03307-14.177 8.4997-15.494 10.807 0.45689 9.7602 11.548 9.0826 14.182l11.414 1.0685"/>
     <path d="m88.193 95.464 5.4953 0.82031"/>
     <path d="m91.573 125.11c-29.785 12.816-40.635-12.661-43.411-23.079-1.8071-11.204-0.29963-36.053 22.805-45.884 15.34-6.25 25.263 1.6442 30.36 6.182 9.6205 8.028 10.456 24.7 10.028 28.437-1e-3 11.642-3.819 17.065-5.0143 19.061"/>
     <path d="m66.742 99.281c1.9863-0.74962 4.3666-1.4409 3.9839-2.5415"/>
     <path d="m47.839 89.679 16.494-0.43713"/>
     <path d="m101.51 87.979 9.9083-0.29142"/>
     <path d="m93.057 125.72c-14.587 7.6497-20.12 4.7713-27.199 3.6913-15.817-5.718-23.447-18.869-23.329-39.057 0.79472-10.078 4.6609-23.181 16.623-32.009 9.5884-7.0564 19.744-8.7608 30.498-4.8082 9.6551 4.404 11.344 8.2099 13.802 10.693"/>
     <path d="m72.755 130.72-1.2628 0.53427-20.157 4.4684c-2.3836 0.44039-4.1884-0.32946-5.1484-2.8656l-0.58284-15.98c9.299 11.779 17.54 13.333 25.694 14.037l-0.87426 0.48569"/>
     <path d="m45.507 116.68-4.517-2.7199 0.86593 18.928c0.91605 2.9048 2.3698 5.1001 6.371 4.9198l29.142-6.8969"/>
     <path d="m43.251 136-18.305-17.825c-0.34344-0.22706-0.68688-0.85602-1.0303-2.5415l-0.82426-12.227c-5.3493-7.7135-5.7213-16.745-2.2667-26.788 0.01753-1.5167 0.05586-3.1303 0.34344-5.9072l16.554-5.7011c1.9784 0.79269 1.3395 5.008 1.0303 8.7921"/>
     <path d="m21.587 100.92 17.728 9.5197 6.217-0.6557"/>
     <path d="m40.881 113.91c-3.5524-7.3929-6.4656-15.246-5.4951-25.895 0.43119-0.62228-0.40962-6.382 3.3657-14.356 3.1641-6.4049 5.7019-12.341 15.317-19.095 2.9501-2.0461 3.6416-2.116 5.289-3.0223 4.1685-1.5982 8.1569-3.3348 14.631-3.1597 13.186-0.08221 20.146 6.6197 21.912 8.38"/>
     <path d="m21.222 70.64c2.0801-2.8134 3.901-5.3248 7.8198-8.354 0 0 21.662-10.588 21.856-10.54 0.49879 0.58146 9.3895-0.16708 9.1797-0.53427"/>
     <path d="m93.118 54.291 16.76 2.3697c0.56499 0.42326 3.4604 1.8794 4.19 5.4264l-2.3698 48.923"/>
     <path d="m95.832 56.695 15.421 2.095c1.665 0.46475 2.253 1.9236 2.7475 3.4688"/>
     <path d="m70.417 95.469 21.19 3.091"/>
     <path d="m75.465 97.702 16.107 2.5415"/>
     <path d="m92.775 98.423-22.392-3.3314"/>
    </g>
   </g>
   <ellipse cx="85.236" cy="98.457" rx=".70406" ry=".72123" stroke-width=".19233"/>
   <ellipse cx="78.35" cy="97.444" rx=".67481" ry=".67481" stroke-width=".18213"/>
   <ellipse cx="71.705" cy="96.382" rx=".5983" ry=".61289" stroke-width=".16344"/>
   <ellipse cx="85.219" cy="98.5" rx=".37167" ry=".38073" stroke-width=".10153"/>
   <circle cx="78.333" cy="97.478" r=".38733" stroke-width=".10454"/>
   <ellipse cx="71.722" cy="96.403" rx=".32634" ry=".3343" stroke-width=".089147"/>
   <g>
    <g stroke-width=".19233px">
     <path d="m72.555 132.11 24.307 14.571"/>
     <path d="m74.388 131.63 22.612 12.918"/>
     <path d="m84.498 129.5 17.996 9.1356"/>
    </g>
    <path d="m84.572 129.56 11.056-2.7403" stroke-width=".26458px"/>
   </g>
  </g>
  <g>
   <path d="m90.471 127.08 1.6704-0.13364 2.4722-0.60136-1.5368-0.66817-1.0867 0.59265z" fill="#383838" stroke="#000" stroke-width=".26458px"/>
   <path d="m95.883 56.675 15.485 2.1215 0.63476 0.3675 0.70159 0.46772 0.65147 0.88533 0.35079 0.93544 0.28397 0.73499 0.0668 0.41761-0.25057 5.596-0.4176 6.9991-0.46773 11.075-0.46772 9.6217-0.7684 15.134-5.3322-1.1878 0.33073-0.56696 0.93313-1.5828 1.4292-3.0592 0.74414-2.2324 0.67327-2.4332 0.4016-2.4687 0.24805-1.8072 0.15355-1.7127 0.0827-1.6655 0.10631-3.6026-0.18899-3.3073-0.37798-3.4727-0.55515-2.7403-0.66146-2.5986-0.57877-2.0552-0.62603-1.6655-1.2048-2.8466-1.1458-2.008-1.2638-1.9371-1.2402-1.5119-0.33073-0.47247-0.87407-1.0158-1.252-1.4765-1.3111-1.4056-1.8308-1.6891-1.8426-1.3229-0.41341-0.37798z" fill="#383838"/>
   <path d="m20.77 76.67 18.108-2.94 28.331 8.9535c-2.5781 0.85533-2.2199 0.80933-2.8315 7.7485-0.13003 1.4752-0.2631 3.2926-0.37571 5.5482 0.6269 4.649 1.8308 8.6162 4.4099 10.958l-29.032 3.7418-17.94-9.6885-5.0781-3.5413-1.6036-20.246z" fill="#fff"/>
   <path d="m38.057 98.964-0.61421-1.6064-0.56696-2.6931-0.16015-2.9276 0.23386-2.94 0.50113-2.5057 0.93544-3.2072 0.33409-0.50113 0.53454 0.10023h4.5102l3.675-0.03341 5.3454 0.06682 5.0447-0.03341 9.1874 0.03341-0.45102 1.3531-0.7684 2.7395-0.34948 1.985-0.31892 2.1379-0.07087 1.6773 0.07087 3.1537 0.12993 1.3111 0.38979 2.3387 0.29529 1.5237 0.72201 2.3096 0.71829 1.6704 1.1192 2.1214-1.8876-0.53454-6.5982-1.754-5.7129-1.4867-9.1495-2.3736z" fill="#ececec"/>
  </g>
  <g fill="none" stroke="#000" stroke-width=".26458px">
   <path d="m20.78 76.636 17.907-2.94 28.464 8.9535-28.266 0.03358z"/>
   <path d="m21.649 101.09 17.707 9.5549 29.199-3.6081-30.335-8.0849z"/>
   <path d="m38.554 82.687c-3.0977 7.2572-1.532 14.726-0.37798 16.253"/>
  </g>
  <g>
   <path d="m21.925 76.661 17.222 5.6696h4.2759l-19.466-5.9767z" fill="#a76e18"/>
   <path d="m22.1 76.734 16.785 5.646h4.2759l-19.324-5.8941z" fill="#ebca97"/>
  </g>
  <g transform="translate(2.2384 -.3255)">
   <path d="m21.925 76.661 19.478 5.9649 4.4294 0.14174-21.037-6.5791z" fill="#a76e18"/>
   <path d="m22.1 76.723 19.253 5.9177 4.1695 0.1063-20.736-6.4787z" fill="#ebca97"/>
  </g>
  <g transform="translate(5.2893 -.85396)">
   <path d="m21.925 76.661 21.064 6.5997 4.5129 0.02481-22.707-7.097z" fill="#a76e18"/>
   <path d="m22.1 76.723 20.857 6.5358 4.2364 0.0061-22.406-6.9966z" fill="#ebca97"/>
  </g>
  <g transform="translate(8.3946 -1.3687)">
   <path d="m21.925 76.661 22.624 7.1135 4.5366 0.08387-24.507-7.6364z" fill="#a76e18"/>
   <path d="m22.1 76.723 22.451 7.0496 4.3427 0.06516-24.374-7.5193z" fill="#ebca97"/>
  </g>
  <g transform="translate(11.3 -1.8672)">
   <path d="m21.925 76.661 24.449 7.6805 4.4716-0.01062-26.267-8.1089z" fill="#a76e18"/>
   <path d="m22.1 76.723 24.27 7.6224 4.325-0.01162-26.175-8.0154z" fill="#ebca97"/>
  </g>
  <g transform="translate(14.146 -2.368)">
   <path d="m21.925 76.661 26.244 8.1175 3.5857 0.06025-27.271-8.5814z" fill="#a76e18"/>
   <path d="m22.1 76.723 26.066 8.0713 3.3328 0.03563-27.061-8.4879z" fill="#ebca97"/>
  </g>
  <path d="m36.302 81.833 26.272-0.58584" fill="none" stroke="#000" stroke-width=".26458px"/>
  <g transform="matrix(1 0 0 -1 .46772 177.99)">
   <path d="m21.901 76.779 15.781 2.0552 4.7719-1.2757-17.836-2.2206z" fill="#a76e18"/>
   <path d="m22.147 76.817 15.556 2.0198 4.394-1.1812-17.411-2.1497z" fill="#ebca97"/>
  </g>
  <g transform="matrix(1 0 0 -1 3.3358 179.52)">
   <path d="m21.901 76.779 17.877 2.2557 4.8471-1.259-20.007-2.4378z" fill="#a76e18"/>
   <path d="m22.147 76.817 17.611 2.2203 4.561-1.1812-19.632-2.3502z" fill="#ebca97"/>
  </g>
  <g transform="matrix(1 0 0 -1 6.1589 181.05)">
   <path d="m21.901 76.779 20.003 2.4919 4.7762-1.259-22.063-2.674z" fill="#a76e18"/>
   <path d="m22.147 76.817 19.772 2.4565 4.4075-1.1694-21.64-2.5982z" fill="#ebca97"/>
  </g>
  <g transform="matrix(1 0 0 -1 9.0067 182.61)">
   <path d="m21.901 76.779 22.153 2.7282 4.7762-1.318-24.212-2.8512z" fill="#a76e18"/>
   <path d="m22.147 76.817 21.922 2.6927 4.502-1.2402-23.884-2.7636z" fill="#ebca97"/>
  </g>
  <g transform="matrix(1 0 0 -1 11.802 184.14)">
   <path d="m21.901 76.779 24.308 2.9119 4.7595-1.2679-26.35-3.085z" fill="#a76e18"/>
   <path d="m22.147 76.817 24.06 2.8848 4.5437-1.2068-26.064-2.9891z" fill="#ebca97"/>
  </g>
  <g transform="matrix(1 0 0 -1 14.734 185.72)">
   <path d="m21.901 76.779 26.209 3.1836 4.6296-1.197-28.122-3.4276z" fill="#a76e18"/>
   <path d="m22.147 76.817 26.021 3.1565 4.3193-1.136-27.801-3.3317z" fill="#ebca97"/>
  </g>
  <path d="m36.411 99.151 28.166 8.3675" fill="none" stroke="#000" stroke-width=".26458px"/>
  <path d="m2.914 95.188h20.255l12.794 2.4923" fill="none" marker-end="url(#DotS)" stroke="#000" stroke-width=".83102"/>
  <text x="2.8726187" y="88.168159" fill="#000000" font-family="Uroob" font-size="4.2333px" letter-spacing="0px" stroke-width=".26458" word-spacing="0px" style="line-height:1.25" xml:space="preserve"><tspan x="2.8726187" y="88.168159">radio-frequency</tspan><tspan x="2.8726187" y="93.459824">antennas</tspan></text>
  <path d="m9.041 47.815h22.301l29.225 32.021" fill="none" marker-end="url(#DotS-1)" stroke="#000" stroke-width=".79375"/>
  <text x="9.0399799" y="45.985569" fill="#000000" font-family="Uroob" font-size="4.2333px" letter-spacing="0px" stroke-width=".26458" word-spacing="0px" style="line-height:1.25" xml:space="preserve"><tspan x="9.0399799" y="45.985569" stroke-width=".26458">gradient coils</tspan></text>
  <path d="m148.77 94.591-29.86-0.37798-22.61 12.933" fill="none" marker-end="url(#DotS-1-6)" stroke="#000" stroke-width=".79375"/>
  <text x="148.90727" y="87.90136" fill="#000000" font-family="Uroob" font-size="4.2333px" letter-spacing="0px" stroke-width=".26458" text-align="end" text-anchor="end" word-spacing="0px" style="line-height:1.25" xml:space="preserve"><tspan x="148.90727" y="87.90136" text-align="end">multi-channel</tspan><tspan x="150.39555" y="93.193024" text-align="end">head antenna </tspan></text>
  <path d="m56.477 154.6h22.301l29.792-25.973" fill="none" marker-end="url(#DotS-7)" stroke="#000" stroke-width=".79375"/>
  <text x="56.600311" y="153.14803" fill="#000000" font-family="Uroob" font-size="4.2333px" letter-spacing="0px" stroke-width=".26458" word-spacing="0px" style="line-height:1.25" xml:space="preserve"><tspan x="56.600311" y="153.14803" stroke-width=".26458">table</tspan></text>
  <path d="m148.77 69.171-29.86-0.37798-39.619 23.138" fill="none" marker-end="url(#DotS-1-6-4)" stroke="#000" stroke-width=".79375"/>
  <text x="135.61172" y="67.595695" fill="#000000" font-family="Uroob" font-size="4.2333px" letter-spacing="0px" stroke-width=".26458" word-spacing="0px" style="line-height:1.25" xml:space="preserve"><tspan x="135.61172" y="67.595695" stroke-width=".26458">tunnel</tspan></text>
  <g fill="none" stroke="#000">
   <path d="m33.722 80.883 25.023-0.93545" enable-background="new" stroke-width=".26458px"/>
   <path d="m34.723 99.527 25.524 8.5311" enable-background="new" stroke-width=".26458px"/>
   <path d="m5.4502 113.44h22.301l11.271-6.5072" enable-background="new" marker-end="url(#DotS-4)" stroke-width=".79375"/>
  </g>
  <text x="5.1495113" y="111.93637" enable-background="new" fill="#000000" font-family="Uroob" font-size="4.2333px" letter-spacing="0px" stroke-width=".26458" word-spacing="0px" style="line-height:1.25" xml:space="preserve"><tspan x="5.1495113" y="111.93637" stroke-width=".26458">magnet</tspan></text>
 </g>
</svg>
